<svg width="100%" height="100%" id="svg" viewBox="0 0 1440 390" xmlns="http://www.w3.org/2000/svg" class="transition duration-300 ease-in-out delay-150"><path d="M 0,400 L 0,75 C 69.94164212076582,64.14110824742266 139.88328424153164,53.28221649484534 197,75 C 254.11671575846836,96.71778350515466 298.4085051546392,151.01224226804126 360,172 C 421.5914948453608,192.98775773195874 500.48269513991147,180.66881443298965 560,196 C 619.5173048600885,211.33118556701035 659.6607142857144,254.3125 713,290 C 766.3392857142856,325.6875 832.8744477172311,354.0811855670103 905,368 C 977.1255522827689,381.9188144329897 1054.841494845361,381.3627577319587 1113,417 C 1171.158505154639,452.6372422680413 1209.7595729013256,524.4677835051547 1261,561 C 1312.2404270986744,597.5322164948453 1376.1202135493372,598.7661082474226 1440,600 L 1440,400 L 0,400 Z" stroke="none" stroke-width="0" fill="#7803FB" fill-opacity="0.4" class="transition-all duration-300 ease-in-out delay-150 path-0"></path><path d="M 0,400 L 0,175 C 56.066273932253324,167.06544550810014 112.13254786450665,159.1308910162003 174,169 C 235.86745213549335,178.8691089837997 303.53608247422676,206.54188144329896 360,239 C 416.46391752577324,271.45811855670104 461.72312223858614,308.7015832106038 513,338 C 564.2768777614139,367.2984167893962 621.5714285714286,388.6517857142857 689,399 C 756.4285714285714,409.3482142857143 833.9911634756995,408.6912739322533 905,438 C 976.0088365243005,467.3087260677467 1040.463917525773,526.583118556701 1091,558 C 1141.536082474227,589.416881443299 1178.1531664212077,592.9762518409425 1234,612 C 1289.8468335787923,631.0237481590575 1364.923416789396,665.5118740795288 1440,700 L 1440,400 L 0,400 Z" stroke="none" stroke-width="0" fill="#7803FB" fill-opacity="0.53" class="transition-all duration-300 ease-in-out delay-150 path-1"></path><path d="M 0,400 L 0,275 C 48.34020618556701,281.24199189985274 96.68041237113403,287.48398379970547 157,294 C 217.31958762886597,300.51601620029453 289.61855670103097,307.30605670103097 355,326 C 420.38144329896903,344.69394329896903 478.8453608247422,375.2917893961709 544,411 C 609.1546391752578,446.7082106038291 681,487.5267857142858 750,516 C 819,544.4732142857142 885.1546391752576,560.6010677466862 930,577 C 974.8453608247424,593.3989322533138 998.3814432989691,610.0689432989691 1057,645 C 1115.618556701031,679.9310567010309 1209.319587628866,733.1231590574375 1279,762 C 1348.680412371134,790.8768409425625 1394.340206185567,795.4384204712812 1440,800 L 1440,400 L 0,400 Z" stroke="none" stroke-width="0" fill="#7803FB" fill-opacity="1" class="transition-all duration-300 ease-in-out delay-150 path-2"></path></svg>