<svg id="visual" viewBox="0 0 900 600" width="900" height="600" xmlns="http://www.w3.org/2000/svg" xmlns:xlink="http://www.w3.org/1999/xlink" version="1.1"><rect x="0" y="0" width="900" height="600" fill="#001220"></rect><path d="M153 0L155.7 14.3C158.3 28.7 163.7 57.3 170.3 85.8C177 114.3 185 142.7 192 171.2C199 199.7 205 228.3 199.3 257C193.7 285.7 176.3 314.3 170.8 343C165.3 371.7 171.7 400.3 173.7 428.8C175.7 457.3 173.3 485.7 174.3 514.2C175.3 542.7 179.7 571.3 181.8 585.7L184 600L0 600L0 585.7C0 571.3 0 542.7 0 514.2C0 485.7 0 457.3 0 428.8C0 400.3 0 371.7 0 343C0 314.3 0 285.7 0 257C0 228.3 0 199.7 0 171.2C0 142.7 0 114.3 0 85.8C0 57.3 0 28.7 0 14.3L0 0Z" fill="#ffffff"></path><path d="M175 0L169.7 14.3C164.3 28.7 153.7 57.3 146.8 85.8C140 114.3 137 142.7 136.3 171.2C135.7 199.7 137.3 228.3 137.5 257C137.7 285.7 136.3 314.3 142.2 343C148 371.7 161 400.3 166.7 428.8C172.3 457.3 170.7 485.7 165.5 514.2C160.3 542.7 151.7 571.3 147.3 585.7L143 600L0 600L0 585.7C0 571.3 0 542.7 0 514.2C0 485.7 0 457.3 0 428.8C0 400.3 0 371.7 0 343C0 314.3 0 285.7 0 257C0 228.3 0 199.7 0 171.2C0 142.7 0 114.3 0 85.8C0 57.3 0 28.7 0 14.3L0 0Z" fill="#f2f2f2"></path><path d="M97 0L99.3 14.3C101.7 28.7 106.3 57.3 108.7 85.8C111 114.3 111 142.7 113 171.2C115 199.7 119 228.3 117.2 257C115.3 285.7 107.7 314.3 108.8 343C110 371.7 120 400.3 125.5 428.8C131 457.3 132 485.7 130.8 514.2C129.7 542.7 126.3 571.3 124.7 585.7L123 600L0 600L0 585.7C0 571.3 0 542.7 0 514.2C0 485.7 0 457.3 0 428.8C0 400.3 0 371.7 0 343C0 314.3 0 285.7 0 257C0 228.3 0 199.7 0 171.2C0 142.7 0 114.3 0 85.8C0 57.3 0 28.7 0 14.3L0 0Z" fill="#e5e5e5"></path><path d="M63 0L64 14.3C65 28.7 67 57.3 70.7 85.8C74.3 114.3 79.7 142.7 83 171.2C86.3 199.7 87.7 228.3 88.8 257C90 285.7 91 314.3 92.8 343C94.7 371.7 97.3 400.3 95.8 428.8C94.3 457.3 88.7 485.7 89 514.2C89.3 542.7 95.7 571.3 98.8 585.7L102 600L0 600L0 585.7C0 571.3 0 542.7 0 514.2C0 485.7 0 457.3 0 428.8C0 400.3 0 371.7 0 343C0 314.3 0 285.7 0 257C0 228.3 0 199.7 0 171.2C0 142.7 0 114.3 0 85.8C0 57.3 0 28.7 0 14.3L0 0Z" fill="#d8d8d8"></path><path d="M56 0L56.7 14.3C57.3 28.7 58.7 57.3 54.2 85.8C49.7 114.3 39.3 142.7 36.7 171.2C34 199.7 39 228.3 44.5 257C50 285.7 56 314.3 53.3 343C50.7 371.7 39.3 400.3 37.5 428.8C35.7 457.3 43.3 485.7 45.7 514.2C48 542.7 45 571.3 43.5 585.7L42 600L0 600L0 585.7C0 571.3 0 542.7 0 514.2C0 485.7 0 457.3 0 428.8C0 400.3 0 371.7 0 343C0 314.3 0 285.7 0 257C0 228.3 0 199.7 0 171.2C0 142.7 0 114.3 0 85.8C0 57.3 0 28.7 0 14.3L0 0Z" fill="#cccccc"></path></svg>